<svg width="44" height="44" viewBox="0 0 44 44" fill="none" xmlns="http://www.w3.org/2000/svg">
<rect x="24.2057" y="12.0742" width="4.41144" height="5.5143" rx="1" fill="#C651FF"/>
<rect x="18.6914" y="24.2057" width="8.82288" height="4.41144" rx="1" fill="#FFEF34"/>
<path d="M27.2761 15.532H11.1589V16.852H27.2761V15.532Z" fill="#5C16B6"/>
<path d="M27.2712 18.9552H11.154V20.2752H27.2712V18.9552Z" fill="#5C16B6"/>
<path d="M22.3922 12.0743H11.154V13.3943H22.3922V12.0743Z" fill="#5C16B6"/>
<path d="M35.8468 17.7452H31.8472V9.6052C31.8472 8.756 31.1564 8.0652 30.3072 8.0652H8.23241C7.38321 8.0652 6.69241 8.756 6.69241 9.6052V22.7744C6.69241 23.6236 7.38321 24.3144 8.23241 24.3144H10.0716V30.1092L15.9104 25.1196V30.1532C15.9104 31.0024 16.6012 31.6932 17.4504 31.6932H29.1016L34.5268 36.8104V31.6888H35.8424C36.6916 31.6888 37.3824 30.998 37.3824 30.1488V19.2852C37.3868 18.436 36.696 17.7452 35.8468 17.7452ZM8.23241 22.9944C8.10921 22.9944 8.01241 22.8976 8.01241 22.7744V9.6052C8.01241 9.482 8.11361 9.3852 8.23241 9.3852H30.3072C30.4304 9.3852 30.5272 9.482 30.5272 9.6052V22.7744C30.5272 22.8976 30.426 22.9944 30.3072 22.9944H16.3636L11.3916 27.2448V22.9944H8.23241ZM36.0668 30.1488C36.0668 30.272 35.9656 30.3688 35.8468 30.3688H33.2112V33.7436L29.6296 30.3688H17.4504C17.3272 30.3688 17.2304 30.272 17.2304 30.1488V24.3144H30.3072C31.1564 24.3144 31.8472 23.6236 31.8472 22.7744V19.0652H35.8468C35.97 19.0652 36.0668 19.162 36.0668 19.2852V30.1488Z" fill="#5C16B6"/>
<path d="M33.5104 26.5144H19.8836V27.8344H33.5104V26.5144Z" fill="#5C16B6"/>
</svg>
