<?xml version="1.0"?>
<svg xmlns="http://www.w3.org/2000/svg" xmlns:xlink="http://www.w3.org/1999/xlink" version="1.1" id="Layer_1" x="0px" y="0px" viewBox="0 0 512 512" style="enable-background:new 0 0 512 512;" xml:space="preserve" width="512px" height="512px"><g><g>
	<g>
		<path d="M286.17,256L505.752,36.418c8.331-8.331,8.331-21.839,0-30.17c-8.331-8.331-21.839-8.331-30.17,0L256,225.83L36.418,6.248    c-8.331-8.331-21.839-8.331-30.17,0c-8.331,8.331-8.331,21.839,0,30.17L225.83,256L6.248,475.582    c-8.331,8.331-8.331,21.839,0,30.17c8.331,8.331,21.839,8.331,30.17,0L256,286.17l219.582,219.582    c8.331,8.331,21.839,8.331,30.17,0c8.331-8.331,8.331-21.839,0-30.17L286.17,256z" data-original="#000000" class="active-path" data-old_color="#000000" fill="#727272"/>
	</g>
</g></g> </svg>
