<svg width="24" height="24" viewBox="0 0 24 24" fill="none" xmlns="http://www.w3.org/2000/svg">
<path d="M18.2472 20.7576L13.5384 16.728H4.59599C4.00079 16.728 3.51599 16.2432 3.51599 15.648V5.02559C3.51599 4.43039 4.00079 3.94559 4.59599 3.94559H19.4016C19.9968 3.94559 20.4816 4.43039 20.4816 5.02559V15.648C20.4816 16.2432 19.9968 16.728 19.4016 16.728H18.2448V20.7576H18.2472ZM4.71599 15.528H13.9824L17.0472 18.1512V15.528H19.284V5.14559H4.71599V15.528Z" fill="#666666"/>
<path d="M17.2055 9.7224H6.54712V10.9224H17.2055V9.7224Z" fill="#666666"/>
<path d="M17.2773 11.9448H6.6189V13.1448H17.2773V11.9448Z" fill="#666666"/>
<path d="M17.2055 7.50238H6.54712V8.70238H17.2055V7.50238Z" fill="#666666"/>
</svg>
