<svg xmlns="http://www.w3.org/2000/svg" width="127.825" height="114.234" viewBox="0 0 127.825 114.234"><g transform="translate(3099.049 -4199.417)"><path d="M1502.949,1276.4H1391.276a8.076,8.076,0,0,0-8.076,8.075v75.315a8.076,8.076,0,0,0,8.076,8.075h28.778l20.564,20.372c3.216,3.186,9.795,3.2,13.032.023l20.8-20.4h28.5a8.075,8.075,0,0,0,8.076-8.075v-75.315A8.075,8.075,0,0,0,1502.949,1276.4Z" transform="translate(-4482.249 2923.02)" fill="#727272"/><rect width="8.662" height="64.197" rx="4.331" transform="translate(-3067.671 4249.122) rotate(-90)" fill="#fff"/><rect width="8.662" height="64.197" rx="4.331" transform="translate(-3067.671 4229.047) rotate(-90)" fill="#fff"/><rect width="8.662" height="64.197" rx="4.331" transform="translate(-3067.671 4269.198) rotate(-90)" fill="#fff"/></g></svg>