<svg xmlns="http://www.w3.org/2000/svg" width="128.804" height="110.811" viewBox="0 0 128.804 110.811"><defs><style>.a{fill:#bd67ff;}</style></defs><g transform="translate(4117.871 -3320.307)"><g transform="translate(1956 -8406)"><path class="a" d="M405.212,439.342v56.9c0,6.549,4.965,11.858,11.089,11.858H466.94a11.023,11.023,0,0,0,9.846-6.4l13.168-27.183a32.545,32.545,0,0,0,3.228-14.17V449.589a15.591,15.591,0,0,0-4.121-10.639h0a10.735,10.735,0,0,0-7.84-3.474H466.553c-7.864,0-13.229-8.51-10.279-16.306l.956-2.528a12.572,12.572,0,0,0,.81-4.448v-3.049c0-6.549-4.965-11.858-11.089-11.858h0a10.7,10.7,0,0,0-7.513,3.137l-30.65,30.2A12.252,12.252,0,0,0,405.212,439.342Z" transform="translate(-6438.249 11329.02)"/><rect class="a" width="30.229" height="71.483" rx="14.173" transform="translate(-6073.871 11765.634)"/></g></g></svg>