<svg xmlns="http://www.w3.org/2000/svg" width="128.804" height="110.811" viewBox="0 0 128.804 110.811"><g transform="translate(3300.85 -4198.604)"><path d="M1222.233,1317.64v56.9c0,6.549,4.965,11.858,11.089,11.858h50.639a11.024,11.024,0,0,0,9.846-6.4l13.168-27.183a32.545,32.545,0,0,0,3.228-14.17v-10.752a15.593,15.593,0,0,0-4.12-10.639h0a10.738,10.738,0,0,0-7.841-3.474h-14.668c-7.864,0-13.229-8.51-10.279-16.306l.956-2.528a12.571,12.571,0,0,0,.81-4.448v-3.049c0-6.549-4.965-11.858-11.089-11.858h0a10.7,10.7,0,0,0-7.513,3.137l-30.65,30.2A12.252,12.252,0,0,0,1222.233,1317.64Z" transform="translate(-4482.249 2923.02)" fill="#727272"/><rect width="30.229" height="71.483" rx="14.173" transform="translate(-3300.85 4237.932)" fill="#727272"/></g></svg>