<svg width="24" height="24" viewBox="0 0 24 24" fill="none" xmlns="http://www.w3.org/2000/svg">
<path d="M12 19.8216C11.724 19.8216 11.448 19.7184 11.2392 19.5096C10.0152 18.2928 9.15839 17.4456 8.76239 17.0616C5.68559 14.0496 3.77759 12.1488 3.33599 11.0448C3.05999 10.3752 2.92799 9.6768 2.95199 8.9736C2.99759 6.6432 4.74479 4.584 7.10639 4.0848C8.34239 3.8232 10.1544 3.9528 12 5.8944C13.8456 3.9504 15.6576 3.8208 16.8936 4.0848C19.2528 4.584 21 6.6408 21.048 8.9784C21.0696 9.6816 20.94 10.38 20.6616 11.052C20.2224 12.1512 18.3144 14.052 15.24 17.0616C14.6448 17.64 13.1928 19.0824 12.7608 19.512C12.5496 19.7184 12.276 19.8216 12 19.8216ZM8.06879 5.1816C7.83119 5.1816 7.59359 5.208 7.35359 5.2584C5.53199 5.6448 4.18559 7.2192 4.14959 9.0048C4.13279 9.5448 4.23119 10.0752 4.44479 10.5936C4.81679 11.5272 7.24799 13.9032 9.59759 16.2024C10.0848 16.6752 11.1528 17.736 11.9976 18.5736C12.5112 18.0648 13.836 16.7472 14.4 16.2C16.7472 13.9008 19.1784 11.5248 19.548 10.5984C19.764 10.0752 19.8648 9.5424 19.848 9.012V9.0048C19.8144 7.2192 18.4656 5.6448 16.644 5.2584C15.168 4.944 13.7616 5.5944 12.4632 7.1808L12 7.7496L11.5368 7.1808C10.4472 5.8512 9.28319 5.1816 8.06879 5.1816Z" fill="#666666"/>
</svg>
