<svg id="Layer_1" data-name="Layer 1" xmlns="http://www.w3.org/2000/svg" viewBox="0 0 520 53.09"><defs><style>.cls-1{fill:#bd67ff;}</style></defs><path d="M18.61,76.55C6.94,76.55.13,70.13.13,61.12v-1H10.76v1.1c0,4,2.92,6.67,7.85,6.67s7.77-2.72,7.77-6.67c0-3.5-2.2-5.9-7-6.87l-5.51-1.11C5.25,51.59,0,46.92,0,38.3c0-8.17,6.16-14.85,17.57-14.85S35.13,30.2,35.13,38v.78H24.5V38c0-3.5-2.46-5.9-6.93-5.9s-6.94,2.4-6.94,5.9,2.2,5.38,7.13,6.42l5.51,1.1c9,1.82,13.81,6.87,13.81,15.36C37.08,70,30.4,76.55,18.61,76.55Z" transform="translate(0 -23.45)"/><path d="M46.82,30.39c3.31-4.41,8.24-6.94,15.76-6.94,12.18,0,19.44,7.14,20.09,18.42H72c-.39-5.9-3.63-9.47-9.46-9.47-3.37,0-5.84,1.23-7.39,3.57-1.82,2.65-2.6,6.48-2.6,14s.78,11.41,2.6,14.06c1.55,2.34,4,3.57,7.39,3.57,5.83,0,9.07-3.57,9.46-9.47H82.67C82,69.41,74.76,76.55,62.58,76.55c-7.52,0-12.45-2.53-15.76-6.94C43,64.55,41.9,57.62,41.9,50S43,35.45,46.82,30.39Z" transform="translate(0 -23.45)"/><path d="M115.37,53.79H99.68V75.64H89.05V24.36H99.68V44.91h15.69V24.36h10.69V75.64H115.37Z" transform="translate(0 -23.45)"/><path class="cls-1" d="M169,69.61c-3.31,4.41-8.3,6.94-15.75,6.94S140.8,74,137.49,69.61c-3.82-5.06-4.92-12-4.92-19.64s1.1-14.52,4.92-19.58c3.31-4.41,8.24-6.94,15.76-6.94S165.69,26,169,30.39c3.82,5.06,4.86,12,4.86,19.58S172.82,64.55,169,69.61ZM145.86,64c1.55,2.34,4,3.57,7.39,3.57s5.83-1.23,7.39-3.57c1.81-2.65,2.52-6.48,2.52-14.06s-.71-11.35-2.52-14c-1.56-2.34-4-3.57-7.39-3.57s-5.84,1.23-7.39,3.57c-1.82,2.65-2.6,6.48-2.6,14S144,61.38,145.86,64Z" transform="translate(0 -23.45)"/><path class="cls-1" d="M215.76,69.61c-3.31,4.41-8.3,6.94-15.75,6.94S187.56,74,184.26,69.61c-3.83-5.06-4.93-12-4.93-19.64s1.1-14.52,4.93-19.58c3.3-4.41,8.23-6.94,15.75-6.94s12.44,2.53,15.75,6.94c3.83,5.06,4.86,12,4.86,19.58S219.59,64.55,215.76,69.61ZM192.62,64c1.55,2.34,4,3.57,7.39,3.57s5.83-1.23,7.39-3.57c1.81-2.65,2.53-6.48,2.53-14.06s-.72-11.35-2.53-14c-1.56-2.34-4-3.57-7.39-3.57s-5.84,1.23-7.39,3.57c-1.82,2.65-2.6,6.48-2.6,14S190.8,61.38,192.62,64Z" transform="translate(0 -23.45)"/><path d="M227.19,24.36h10.63v42.4h21.53v8.88H227.19Z" transform="translate(0 -23.45)"/><path d="M275.77,75.64H265.14V65.07h10.63Z" transform="translate(0 -23.45)"/><path d="M288.16,24.36l11.41,39.87L311,24.36h10.89l-16.4,51.28H293.67l-16.4-51.28Z" transform="translate(0 -23.45)"/><path d="M336.93,75.64H326.3V24.36h10.63Z" transform="translate(0 -23.45)"/><path d="M344.52,24.36h10.63v42.4h21.52v8.88H344.52Z" transform="translate(0 -23.45)"/><path d="M381.43,24.36h10.63v42.4h21.52v8.88H381.43Z" transform="translate(0 -23.45)"/><path d="M448.72,75.64l-2.78-9.85H428.7l-2.79,9.85H415l16.4-51.28h11.8l16.4,51.28ZM431.09,57.1h12.39l-6.16-21.78Z" transform="translate(0 -23.45)"/><path d="M474.68,75.64H464.05V24.36h10.63Z" transform="translate(0 -23.45)"/><path d="M492.91,42.77V75.64H482.28V24.36H493l16.28,32.93V24.36H520V75.64H509.17Z" transform="translate(0 -23.45)"/></svg>