<svg width="34" height="34" viewBox="0 0 34 34" fill="none" xmlns="http://www.w3.org/2000/svg">
<path d="M17.0001 28.305C10.7679 28.305 5.69507 23.2322 5.69507 17C5.69507 10.7678 10.7679 5.69501 17.0001 5.69501C23.2323 5.69501 28.3051 10.7678 28.3051 17C28.3051 23.2322 23.2323 28.305 17.0001 28.305ZM17.0001 7.39501C11.7029 7.39501 7.39507 11.7028 7.39507 17C7.39507 22.2972 11.7029 26.605 17.0001 26.605C22.2973 26.605 26.6051 22.2938 26.6051 17C26.6051 11.7062 22.2939 7.39501 17.0001 7.39501Z" fill="#3D3D3D"/>
<path d="M13.6 15.9596C14.3511 15.9596 14.96 15.3507 14.96 14.5996C14.96 13.8485 14.3511 13.2396 13.6 13.2396C12.8489 13.2396 12.24 13.8485 12.24 14.5996C12.24 15.3507 12.8489 15.9596 13.6 15.9596Z" fill="#3D3D3D"/>
<path d="M20.4 15.9596C21.1511 15.9596 21.76 15.3507 21.76 14.5996C21.76 13.8485 21.1511 13.2396 20.4 13.2396C19.6489 13.2396 19.04 13.8485 19.04 14.5996C19.04 15.3507 19.6489 15.9596 20.4 15.9596Z" fill="#3D3D3D"/>
<path d="M17.0612 22.7596C16.0514 22.7596 15.0722 22.5624 14.1508 22.1714C13.26 21.794 12.461 21.2534 11.7742 20.57C11.441 20.2368 11.441 19.6996 11.7742 19.3664C12.1074 19.0332 12.6446 19.0332 12.9778 19.3664C13.5082 19.8968 14.127 20.315 14.8138 20.604C16.2384 21.2058 17.8874 21.2058 19.312 20.604C19.9988 20.3116 20.6176 19.8968 21.148 19.3664C21.4812 19.0332 22.0184 19.0332 22.3516 19.3664C22.6848 19.6996 22.6848 20.2368 22.3516 20.57C21.6648 21.2568 20.8658 21.794 19.975 22.1714C19.0502 22.5624 18.071 22.7596 17.0612 22.7596Z" fill="#3D3D3D"/>
</svg>
