<svg width="34" height="34" viewBox="0 0 34 34" fill="none" xmlns="http://www.w3.org/2000/svg">
<path d="M27.2476 23.579L25.3334 20.009V13.515C25.3334 11.288 24.4664 9.19698 22.8956 7.62278C21.7532 6.48038 20.3184 5.70178 18.7442 5.36518C17.6596 5.13058 16.456 5.12378 15.3544 5.34478L15.2626 5.36178C13.6884 5.69498 12.2502 6.47698 11.1078 7.61938C9.53358 9.19018 8.66998 11.2846 8.66998 13.5116V20.0056L6.75578 23.5756C6.50078 24.055 6.51098 24.6194 6.78978 25.0852C7.06858 25.551 7.55818 25.8298 8.10218 25.8298H13.2022C13.6136 27.5536 15.147 28.8116 17 28.8116C18.8496 28.8116 20.383 27.5536 20.7978 25.8298H25.8978C26.4418 25.8298 26.9314 25.551 27.2102 25.0852C27.489 24.6228 27.5026 24.0584 27.2476 23.579ZM16.9966 27.115C16.099 27.115 15.3374 26.5948 14.9872 25.8332H18.9958C18.6456 26.588 17.8738 27.115 16.9966 27.115ZM20.9304 24.1332H13.0696H8.38438L10.3666 20.4374V13.515C10.3666 11.7436 11.0568 10.0776 12.308 8.82638C13.1954 7.93898 14.3072 7.32358 15.5278 7.04818L15.6196 7.02778C16.5036 6.83738 17.493 6.83738 18.3838 7.02778C19.6384 7.29298 20.7808 7.91518 21.6886 8.82298C22.9398 10.0742 23.63 11.7402 23.63 13.5116V20.434L25.6122 24.1298H20.9304V24.1332Z" fill="#3D3D3D"/>
</svg>
