<svg width="44" height="44" viewBox="0 0 44 44" fill="none" xmlns="http://www.w3.org/2000/svg">
<path d="M34.3684 14.1592C32.8636 14.1592 31.6404 12.936 31.6404 11.4312C31.6404 9.9264 32.8636 8.7032 34.3684 8.7032C35.8732 8.7032 37.0964 9.9264 37.0964 11.4312C37.0964 12.936 35.8732 14.1592 34.3684 14.1592Z" fill="#FFEF34"/>
<path d="M31.2004 15.6112L15.928 30.8836L13.7676 28.446L28.71 13.4992L31.2004 15.6112Z" fill="#C651FF"/>
<path d="M35.9876 7.50641C35.4024 6.92121 34.628 6.60001 33.8184 6.60001C33.8008 6.60001 33.7832 6.60001 33.7656 6.60001C32.9516 6.60001 32.1552 6.93001 31.5832 7.50641L29.9288 9.16081L27.6144 11.4752L27.0644 12.0252L26.6816 12.408L12.2496 26.8488L11.0616 28.0324L9.6712 30.8924L6.8992 36.5992L13.86 33.2156L15.4616 32.4368L16.0116 31.8912L16.6276 31.2752L16.9752 30.9276L32.0188 15.8796L33.7568 14.1416L35.9876 11.9152C37.202 10.6964 37.202 8.71641 35.9876 7.50641ZM9.7548 33.7392L10.6612 31.878L11.6204 32.8372L9.7548 33.7392ZM14.6872 31.3412L12.8744 32.2212L11.2684 30.6152L12.1484 28.8024L12.7732 28.182L14.3572 29.1324L15.312 30.7208L14.6872 31.3412ZM16.2756 29.7616L15.3208 28.1732L13.7412 27.2228L27.6188 13.3408L29.7792 15.5012L30.1576 15.8796L16.2756 29.7616ZM31.086 14.9424L28.5516 12.408L29.9332 11.0264L31.2004 12.2936L32.4676 13.5608L31.086 14.9424ZM35.0548 10.9824L33.4004 12.6324L32.1332 11.3652L30.866 10.098L32.5248 8.43921C32.8548 8.10481 33.33 7.93321 33.7964 7.92001C34.2716 7.92881 34.7204 8.10041 35.0592 8.44361C35.7544 9.13881 35.7544 10.2784 35.0548 10.9824Z" fill="#5C16B6"/>
</svg>
