<svg width="27" height="27" viewBox="0 0 27 27" fill="none" xmlns="http://www.w3.org/2000/svg">
<path d="M26.0802 1.483C25.5748 0.977595 24.906 0.700195 24.2068 0.700195C24.1916 0.700195 24.1764 0.700195 24.1612 0.700195C23.4582 0.700195 22.7704 0.985195 22.2764 1.483L20.8476 2.91179L18.8488 4.91059L18.3738 5.38559L18.0432 5.71619L5.57921 18.1878L4.55321 19.21L3.35241 21.68L0.958405 26.6086L6.97001 23.6864L8.35321 23.0138L8.82821 22.5426L9.36021 22.0106L9.66041 21.7104L22.6526 8.71439L24.1536 7.21339L26.0802 5.29059C27.129 4.23799 27.129 2.52799 26.0802 1.483ZM3.42461 24.1386L4.20741 22.5312L5.03581 23.3596L3.42461 24.1386ZM7.68441 22.0676L6.11881 22.8276L4.73181 21.4406L5.49181 19.875L6.03141 19.3392L7.39941 20.16L8.22401 21.5318L7.68441 22.0676ZM9.05621 20.7034L8.23161 19.3316L6.86741 18.5108L18.8526 6.52179L20.7184 8.38759L21.0452 8.71439L9.05621 20.7034ZM21.847 7.90499L19.6582 5.71619L20.8514 4.52299L21.9458 5.61739L23.0402 6.71179L21.847 7.90499ZM25.2746 4.48499L23.8458 5.90999L22.7514 4.81559L21.657 3.72119L23.0896 2.28859C23.3746 1.99979 23.785 1.85159 24.1878 1.84019C24.5982 1.84779 24.9858 1.99599 25.2784 2.29239C25.8788 2.89279 25.8788 3.87699 25.2746 4.48499Z" fill="white"/>
</svg>
