<svg width="44" height="44" viewBox="0 0 44 44" fill="none" xmlns="http://www.w3.org/2000/svg">
<path d="M21.9164 7.99923V6.03243C21.9164 5.60563 22.264 5.25803 22.6908 5.25803H26.3692C26.796 5.25803 27.1436 5.60563 27.1436 6.03243V7.99923C27.1436 8.42603 26.796 8.77363 26.3692 8.77363H22.6908C22.264 8.77363 21.9164 8.42603 21.9164 7.99923Z" fill="#C651FF"/>
<path d="M22.8008 23.276C21.5468 23.276 20.526 22.2552 20.526 21.0012C20.526 19.7472 21.5468 18.7264 22.8008 18.7264C24.0548 18.7264 25.0756 19.7472 25.0756 21.0012C25.0712 22.2552 24.0548 23.276 22.8008 23.276Z" fill="#FFEF34"/>
<path d="M20.0508 37.3736V29.4184C20.0508 28.9256 20.4468 28.5252 20.9307 28.5252H24.6707C25.1547 28.5252 25.5507 28.9256 25.5507 29.4184V37.3736" fill="#C651FF"/>
<path d="M35.8644 18.6428H29.5988L22.66 12.012V9.21361C22.7304 9.22241 22.8052 9.23561 22.88 9.23561H26.18C27.0292 9.23561 27.72 8.54481 27.72 7.69562V6.34041C27.72 5.49121 27.0292 4.80042 26.18 4.80042H22.88C22.0308 4.80042 21.34 5.49121 21.34 6.34041V6.57801V7.70001V12.0164L14.4012 18.6428H8.13117C7.28197 18.6428 6.59117 19.3336 6.59117 20.1828V22.8052V24.1252V35.9348C6.59117 36.784 7.28197 37.4748 8.13117 37.4748H14.0052H15.3252H28.6704H29.9904H35.8644C36.7136 37.4748 37.4044 36.784 37.4044 35.9348V24.1296V22.8096V20.1828C37.4044 19.3336 36.7136 18.6428 35.8644 18.6428ZM22.66 6.33601C22.66 6.21281 22.7568 6.11601 22.88 6.11601H26.18C26.3032 6.11601 26.4 6.21281 26.4 6.33601V7.69121C26.4 7.81441 26.3032 7.91121 26.18 7.91121H22.88C22.7568 7.91121 22.66 7.81441 22.66 7.69121V6.56921V6.33601ZM7.91117 20.1828C7.91117 20.0596 8.00797 19.9628 8.13117 19.9628H14.0052V22.8052H7.91117V20.1828ZM14.0052 36.1548H8.13117C8.00797 36.1548 7.91117 36.058 7.91117 35.9348V24.1296H14.0052V36.1548ZM24.4508 36.1548H19.3908V28.5296C19.3908 28.1644 19.6856 27.8696 20.0508 27.8696H23.7908C24.156 27.8696 24.4508 28.1644 24.4508 28.5296V36.1548ZM28.6704 36.1548H25.7664V28.5296C25.7664 27.4384 24.8776 26.5496 23.7864 26.5496H20.0464C18.9552 26.5496 18.0664 27.4384 18.0664 28.5296V36.1548H15.3208V24.1296V22.8096V19.5888L21.9956 13.2088L28.6704 19.5888V22.8096V24.1296V36.1548ZM36.0844 35.9348C36.0844 36.058 35.9876 36.1548 35.8644 36.1548H29.9904V24.1296H36.0844V35.9348ZM29.9904 22.8096V19.9628H35.8644C35.9876 19.9628 36.0844 20.0596 36.0844 20.1828V22.8052H29.9904V22.8096Z" fill="#5C16B6"/>
<path d="M21.9208 17.6308C20.548 17.6308 19.426 18.7484 19.426 20.1256C19.426 21.4984 20.5436 22.6204 21.9208 22.6204C23.2936 22.6204 24.4156 21.5028 24.4156 20.1256C24.4112 18.7484 23.2936 17.6308 21.9208 17.6308ZM21.9208 21.296C21.274 21.296 20.746 20.768 20.746 20.1212C20.746 19.4744 21.274 18.9464 21.9208 18.9464C22.5676 18.9464 23.0956 19.4744 23.0956 20.1212C23.0912 20.7724 22.5676 21.296 21.9208 21.296Z" fill="#5C16B6"/>
<path d="M33.0396 28.38C33.4041 28.38 33.6996 28.0845 33.6996 27.72C33.6996 27.3555 33.4041 27.06 33.0396 27.06C32.6751 27.06 32.3796 27.3555 32.3796 27.72C32.3796 28.0845 32.6751 28.38 33.0396 28.38Z" fill="#5C16B6"/>
<path d="M33.0396 33.22C33.4041 33.22 33.6996 32.9245 33.6996 32.56C33.6996 32.1955 33.4041 31.9 33.0396 31.9C32.6751 31.9 32.3796 32.1955 32.3796 32.56C32.3796 32.9245 32.6751 33.22 33.0396 33.22Z" fill="#5C16B6"/>
<path d="M10.9604 28.38C11.3249 28.38 11.6204 28.0845 11.6204 27.72C11.6204 27.3555 11.3249 27.06 10.9604 27.06C10.5959 27.06 10.3004 27.3555 10.3004 27.72C10.3004 28.0845 10.5959 28.38 10.9604 28.38Z" fill="#5C16B6"/>
<path d="M10.9604 33.22C11.3249 33.22 11.6204 32.9245 11.6204 32.56C11.6204 32.1955 11.3249 31.9 10.9604 31.9C10.5959 31.9 10.3004 32.1955 10.3004 32.56C10.3004 32.9245 10.5959 33.22 10.9604 33.22Z" fill="#5C16B6"/>
</svg>
