<svg xmlns="http://www.w3.org/2000/svg" width="18.772" height="18.823" viewBox="0 0 18.772 18.823">
  <path id="빼기_2" data-name="빼기 2" d="M-11705.377-11270.176a1.71,1.71,0,0,1-1.174-.5l-4.043-3.944a8.208,8.208,0,0,1-4.346,1.235,8.122,8.122,0,0,1-5.691-2.287,7.64,7.64,0,0,1-2.357-5.52,7.645,7.645,0,0,1,2.357-5.521,8.121,8.121,0,0,1,5.691-2.286,8.119,8.119,0,0,1,5.689,2.286,7.645,7.645,0,0,1,2.357,5.521,7.677,7.677,0,0,1-1.785,4.9l3.951,3.854a1.613,1.613,0,0,1,.511,1.137,1.109,1.109,0,0,1-.331.806A1.182,1.182,0,0,1-11705.377-11270.176Zm-9.568-16.523a5.581,5.581,0,0,0-5.638,5.511,5.58,5.58,0,0,0,5.638,5.509,5.582,5.582,0,0,0,5.64-5.509A5.583,5.583,0,0,0-11714.945-11286.7Z" transform="translate(11722.988 11288.999)" fill="#bd67ff"/>
</svg>
