<svg width="34" height="34" viewBox="0 0 34 34" fill="none" xmlns="http://www.w3.org/2000/svg">
<path d="M14.4025 23.4974C11.9715 23.4974 9.69006 22.5522 7.96966 20.8352C6.25266 19.1182 5.30746 16.8334 5.30746 14.4024C5.30746 11.9714 6.25266 9.69 7.96966 7.9696C9.68666 6.2526 11.9715 5.3074 14.4025 5.3074C16.8335 5.3074 19.1149 6.2526 20.8353 7.9696C22.5523 9.6866 23.4975 11.9714 23.4975 14.4024C23.4975 16.8334 22.5523 19.1148 20.8353 20.8352C19.1183 22.5522 16.8335 23.4974 14.4025 23.4974ZM14.4025 7.0074C12.4271 7.0074 10.5707 7.7758 9.17326 9.1732C7.77586 10.5706 7.00746 12.427 7.00746 14.4024C7.00746 16.3778 7.77586 18.2342 9.17326 19.6316C10.5707 21.029 12.4271 21.7974 14.4025 21.7974C16.3779 21.7974 18.2343 21.029 19.6317 19.6316C21.0291 18.2342 21.7975 16.3778 21.7975 14.4024C21.7975 12.427 21.0291 10.5706 19.6317 9.1732C18.2343 7.7792 16.3779 7.0074 14.4025 7.0074Z" fill="#3D3D3D"/>
<path d="M20.867 19.667L19.6664 20.8707L27.477 28.7015L28.6775 27.4979L20.867 19.667Z" fill="#3D3D3D"/>
</svg>
