<svg xmlns="http://www.w3.org/2000/svg" width="135.066" height="76.52" viewBox="0 0 135.066 76.52"><g transform="translate(3506.126 -4442.669)"><path d="M1043.657,1519.65c-19.8,0-49.977,20.936-64.344,31.834a8.067,8.067,0,0,0,0,12.852c14.367,10.9,44.543,31.834,64.344,31.834s49.973-20.933,64.34-31.832a8.068,8.068,0,0,0,0-12.856C1093.63,1540.583,1063.456,1519.65,1043.657,1519.65Z" transform="translate(-4482.249 2923.02)" fill="#727272"/><g transform="translate(-4482.249 2923.02)"><circle cx="26.768" cy="26.768" r="26.768" transform="translate(1016.744 1531.142)" fill="#fff"/><path d="M18.727,0A18.727,18.727,0,1,1,0,18.727,18.727,18.727,0,0,1,18.727,0Z" transform="translate(1022.026 1573.547) rotate(-80.783)" fill="#727272"/></g><circle cx="3.2" cy="3.2" r="3.2" transform="translate(-3453.255 4469.438)" fill="#fff"/></g></svg>