<svg width="148" height="148" viewBox="0 0 148 148" fill="none" xmlns="http://www.w3.org/2000/svg">
<mask id="mask0" mask-type="alpha" maskUnits="userSpaceOnUse" x="0" y="0" width="148" height="148">
<rect width="148" height="148" rx="74" fill="black"/>
</mask>
<g mask="url(#mask0)">
<rect x="0.5" y="0.5" width="147" height="147" rx="73.5" fill="#F3F3F5" stroke="#5C16B6" stroke-dasharray="6 6"/>
<path d="M101.637 61.9042V81.1354C101.637 96.737 89.037 109.386 73.4964 109.386C57.9559 109.386 45.3561 96.737 45.3561 81.1354V60.8388C45.3561 60.8388 43.7733 49.6974 53.2793 45.7247C53.2883 45.7247 69.6742 61.9042 101.637 61.9042Z" stroke="#5C16B6" stroke-width="2.3502" stroke-miterlimit="10"/>
<path d="M45.364 75.9642H43.952C39.6712 75.9642 36.1997 79.4493 36.1997 83.747C36.1997 88.0447 39.6712 91.5297 43.952 91.5297H47.3335" stroke="#5C16B6" stroke-width="2.3502" stroke-miterlimit="10"/>
<path d="M101.674 75.9642H103.086C107.367 75.9642 110.838 79.4493 110.838 83.747C110.838 88.0447 107.367 91.5297 103.086 91.5297H99.7046" stroke="#5C16B6" stroke-width="2.3502" stroke-miterlimit="10"/>
<path d="M57.6943 104.503V116.43C57.6943 125.206 64.7811 132.32 73.5227 132.32C82.2643 132.32 89.3511 125.206 89.3511 116.43V104.503" stroke="#5C16B6" stroke-width="2.3502" stroke-miterlimit="10"/>
<path d="M57.6947 116.433L32.5582 131.005C26.5596 134.481 22.4856 140.531 21.5143 147.41L17.1885 177.991" stroke="#5C16B6" stroke-width="2.3502" stroke-miterlimit="10" stroke-linecap="round"/>
<path d="M89.3511 116.432L114.488 131.005C120.486 134.481 124.56 140.53 125.531 147.41L129.857 177.99" stroke="#5C16B6" stroke-width="2.3502" stroke-miterlimit="10" stroke-linecap="round"/>
<path d="M52.4874 46.1051C52.2244 45.6799 52.2242 45.68 52.2241 45.6801L52.2236 45.6804L52.2221 45.6813L52.2173 45.6843L52.2002 45.695C52.1857 45.7042 52.1647 45.7176 52.1378 45.735C52.0839 45.7699 52.0062 45.8211 51.908 45.8879C51.7116 46.0216 51.433 46.2182 51.0994 46.4728C50.4328 46.9816 49.5425 47.7253 48.6481 48.6655C46.8715 50.533 45.0156 53.2429 44.9726 56.4724C44.9321 59.518 44.9119 63.9603 44.9018 67.6395C44.8967 69.4794 44.8942 71.1292 44.8929 72.3189C44.8923 72.9138 44.8919 73.3937 44.8918 73.7248L44.8917 74.06L43.7015 75.5135L41.0444 76.1175C41.0347 76.0613 41.0242 76.0007 41.013 75.9359C40.935 75.4833 40.8232 74.8235 40.6885 73.9956C40.4191 72.3397 40.0581 70.0121 39.6917 67.3261C38.9584 61.9496 38.2063 55.1544 38.1213 49.4383L38.1213 49.4379C38.0342 43.8741 40.6276 40.2042 43.2562 37.9102C44.5735 36.7605 45.898 35.9589 46.8933 35.445C47.3904 35.1884 47.8038 35.0043 48.091 34.885C48.2346 34.8254 48.3464 34.7821 48.4213 34.754C48.4587 34.74 48.4869 34.7298 48.5051 34.7233L48.5249 34.7163L48.529 34.7149L48.5292 34.7148L48.5295 34.7147L48.5296 34.7147L48.7935 34.625L48.8557 34.3534L48.8557 34.3534L48.8558 34.3529L48.856 34.3523L48.8576 34.3453L48.8657 34.3128C48.8731 34.2831 48.885 34.2374 48.9017 34.1769C48.9352 34.0559 48.988 33.8759 49.0641 33.6463C49.2163 33.1869 49.4614 32.53 49.8299 31.7509C50.5674 30.1919 51.7962 28.1505 53.7595 26.2229C57.6659 22.3876 64.5497 18.9344 76.4778 20.7681C100.381 24.4442 108.743 39.5451 110.354 48.335C110.75 50.5006 110.617 53.3123 110.175 56.3445C109.734 59.3678 108.992 62.5715 108.197 65.5044C107.401 68.436 106.554 71.0892 105.906 73.0098C105.582 73.9698 105.308 74.7462 105.115 75.2822C105.051 75.4606 104.995 75.6124 104.95 75.7354L103.377 75.508L102.154 73.7815V61.9054V61.409L101.658 61.4054L101.654 61.9054L101.658 61.4054H101.657L101.656 61.4053L101.647 61.4053L101.614 61.4049L101.481 61.4032C101.363 61.4015 101.19 61.3985 100.965 61.3935C100.515 61.3834 99.8609 61.3649 99.0469 61.3317C97.4188 61.2652 95.1517 61.1396 92.5968 60.903C87.4738 60.4286 81.2431 59.512 76.6794 57.755C72.0785 55.9837 66.0985 52.9672 61.2551 50.3848C58.8364 49.0952 56.7066 47.9168 55.1814 47.0608C54.4189 46.6328 53.8077 46.2855 53.3873 46.0453C53.1771 45.9252 53.0146 45.8319 52.9048 45.7687L52.7801 45.6968L52.7486 45.6786L52.7407 45.674L52.7388 45.6729L52.7383 45.6726C52.7382 45.6725 52.7382 45.6725 52.4874 46.1051ZM52.4874 46.1051L52.2244 45.6799L52.4791 45.5223L52.7382 45.6725L52.4874 46.1051Z" fill="#5C16B6" stroke="#5C16B6"/>
<path d="M60.7836 67.7051C62.2593 67.7051 63.4582 68.9059 63.4582 70.3922C63.4582 71.8785 62.2593 73.0794 60.7836 73.0794C59.3078 73.0794 58.1089 71.8785 58.1089 70.3922C58.1089 68.9059 59.3078 67.7051 60.7836 67.7051Z" fill="#5C16B6" stroke="#5C16B6"/>
<path d="M88.7873 70.3916C88.7873 71.8775 87.588 73.0787 86.1127 73.0787C84.6373 73.0787 83.438 71.8775 83.438 70.3916C83.438 68.9057 84.6373 67.7045 86.1127 67.7045C87.588 67.7045 88.7873 68.9057 88.7873 70.3916Z" fill="#5C16B6" stroke="#5C16B6"/>
<path d="M55.7969 83.7096C55.7969 83.7096 60.9231 91.0319 73.4959 91.0319C86.0776 91.0319 91.1049 83.7096 91.1049 83.7096" stroke="#5C16B6" stroke-width="2.3502" stroke-miterlimit="10" stroke-linecap="round"/>
<path d="M73.5225 83.7458C73.5225 83.7458 77.5965 81.7143 77.7673 79.8093C77.9472 77.9042 75.6449 73.5795 75.6449 73.5795" stroke="#5C16B6" stroke-width="2.3502" stroke-miterlimit="10" stroke-linecap="round"/>
<path d="M65.4502 63.8907C65.4502 63.8907 59.7664 58.32 53.8218 63.8907" stroke="#5C16B6" stroke-width="2.3502" stroke-miterlimit="10" stroke-linecap="round"/>
<path d="M83.4692 63.8907C83.4692 63.8907 89.1531 58.32 95.0977 63.8907" stroke="#5C16B6" stroke-width="2.3502" stroke-miterlimit="10" stroke-linecap="round"/>
<path d="M54.4619 74.0516C55.9286 74.0516 57.1185 75.2434 57.1185 76.7207C57.1185 78.198 55.9286 79.3898 54.4619 79.3898C52.9951 79.3898 51.8052 78.198 51.8052 76.7207C51.8052 75.2434 52.9951 74.0516 54.4619 74.0516Z" fill="#5C16B6" stroke="#5C16B6"/>
<path d="M92.4404 74.0516C93.9071 74.0516 95.0971 75.2434 95.0971 76.7207C95.0971 78.198 93.9071 79.3898 92.4404 79.3898C90.9736 79.3898 89.7837 78.198 89.7837 76.7207C89.7837 75.2434 90.9736 74.0516 92.4404 74.0516Z" fill="#5C16B6" stroke="#5C16B6"/>
<path d="M72.0999 109.933C72.1609 109.942 72.2218 109.951 72.2827 109.96L58.1943 112.916V106.204C58.2389 106.186 58.2935 106.167 58.3587 106.152C58.6173 106.092 59.0901 106.072 59.825 106.388C60.6692 106.756 63.6247 107.871 66.9703 108.797C68.6455 109.261 70.4283 109.68 72.0999 109.933Z" fill="#5C16B6" stroke="#5C16B6"/>
<path d="M25.8379 136.961L28.2301 141.421C34.2647 152.653 37.4304 165.221 37.4304 177.988" stroke="#5C16B6" stroke-width="2.3502" stroke-miterlimit="10" stroke-linecap="round"/>
<path d="M121.207 136.961L118.815 141.421C112.78 152.653 109.614 165.221 109.614 177.988" stroke="#5C16B6" stroke-width="2.3502" stroke-miterlimit="10" stroke-linecap="round"/>
<path d="M53.8218 123.237C53.8218 123.237 56.4479 136.961 75.6577 136.961C90.1551 136.961 92.9251 123.237 92.9251 123.237" stroke="#5C16B6" stroke-width="2.3502" stroke-miterlimit="10" stroke-linecap="round"/>
<path d="M55.7969 147.209C55.7969 147.209 72.4886 174.801 92.9216 177.988" stroke="#5C16B6" stroke-width="2.3502" stroke-miterlimit="10" stroke-linecap="round"/>
</g>
</svg>
